<svg version="1.1" id="Layer_1" xmlns="http://www.w3.org/2000/svg" xmlns:xlink="http://www.w3.org/1999/xlink" x="0px" y="0px"
	 width="100%" viewBox="0 0 500 500" enable-background="new 0 0 500 500" xml:space="preserve">
<path fill="#FFFFFF" opacity="1.000000" stroke="none" 
	d="
M342.000000,501.000000 
	C229.333359,501.000000 117.166695,500.979950 5.000178,501.095306 
	C1.576388,501.098846 0.903033,500.423889 0.905298,497.000031 
	C1.013776,333.000122 1.013758,169.000153 0.905339,5.000262 
	C0.903076,1.576995 1.575748,0.903019 4.999861,0.905284 
	C168.999756,1.013775 332.999725,1.013760 496.999634,0.905354 
	C500.422638,0.903092 501.097015,1.575402 501.094757,4.999742 
	C500.986237,168.999634 500.986237,332.999603 501.094604,496.999512 
	C501.096893,500.422272 500.426270,501.106873 497.000153,501.097504 
	C445.500397,500.956757 394.000153,501.000000 342.000000,501.000000 
z"/>
<path fill="#01BF63" opacity="1.000000" stroke="none" 
	d="
M463.734131,275.975403 
	C464.024414,306.516266 463.981537,336.839325 464.130798,367.161469 
	C464.147491,370.553345 463.052948,371.235107 459.905457,371.227448 
	C419.919373,371.130096 379.932892,371.133392 339.946747,371.221924 
	C336.851501,371.228790 335.661896,370.608368 335.667267,367.171295 
	C335.770599,301.027405 335.773865,234.883286 335.661285,168.739426 
	C335.655182,165.154877 337.076416,164.782135 340.035980,164.787552 
	C380.022186,164.860748 420.008667,164.876129 459.994659,164.763763 
	C463.289246,164.754517 464.140381,165.689224 464.122833,168.927795 
	C463.988098,193.751801 464.041016,218.576813 463.985168,243.891907 
	C461.596039,245.193329 460.286224,243.279922 458.625305,242.343872 
	C456.016388,240.873581 453.445007,239.236603 450.414886,238.900482 
	C446.385742,238.453583 444.448700,241.253311 446.281525,244.869247 
	C448.477814,249.202103 452.724121,251.471588 456.347565,254.328705 
	C458.429871,255.970642 460.742401,257.326202 462.525360,259.332306 
	C465.350800,262.511230 465.288910,264.121582 461.712311,266.596863 
	C454.615295,271.508514 447.133057,275.786896 438.778381,279.791412 
	C445.354858,279.219574 451.276245,278.286469 457.109039,276.720001 
	C459.176422,276.164764 461.237488,275.383545 463.734131,275.975403 
z"/>
<path fill="#010101" opacity="1.000000" stroke="none" 
	d="
M317.682800,362.701935 
	C317.868042,363.393616 317.983002,363.716339 318.003448,364.044952 
	C318.447571,371.168152 318.445557,371.168365 311.195496,371.168365 
	C272.530029,371.168396 233.864273,371.099976 195.199524,371.266785 
	C191.007904,371.284851 189.692978,370.554504 189.709137,365.973755 
	C189.900864,311.642792 189.827423,257.310883 189.764954,202.517502 
	C191.682648,199.331543 192.820953,201.893661 193.703613,202.941208 
	C209.577026,221.779495 231.041031,227.446472 254.328400,228.585724 
	C259.988831,228.862656 265.580048,227.456619 270.994080,225.691452 
	C273.059570,225.018036 275.100769,224.195328 276.543945,222.468475 
	C278.329926,220.331421 278.595001,217.945694 277.231598,215.500931 
	C275.899872,213.112930 273.780640,212.536530 271.240204,213.200150 
	C264.795563,214.883621 258.427063,216.999741 251.776199,217.666962 
	C233.113937,219.539139 215.697357,215.765823 199.757935,205.699478 
	C198.913925,205.166473 198.134140,204.532211 197.364914,203.894226 
	C193.308456,200.529785 193.479340,198.839935 198.282288,197.066101 
	C206.250015,194.123413 214.214355,191.167419 222.241699,188.388062 
	C236.879135,183.320068 251.331482,177.734085 265.998383,172.749786 
	C269.516571,171.554169 272.067047,169.829468 270.803314,165.144012 
	C272.670776,164.784164 274.394379,164.788452 276.540283,164.708405 
	C278.819305,164.073730 280.664886,163.365799 282.968811,164.452271 
	C293.480194,164.730957 303.647308,164.946793 313.805878,164.740524 
	C317.294037,164.669724 318.190582,165.560852 318.183746,169.088409 
	C318.061462,232.419601 318.086914,295.751068 318.074341,359.552490 
	C315.505676,360.193573 315.250580,357.989349 314.642334,356.431213 
	C307.858582,339.052124 300.683777,321.815125 295.812958,303.744751 
	C293.677032,295.820740 292.918121,287.690369 291.719208,279.624817 
	C291.002045,274.800354 289.871643,270.135986 287.444763,265.868927 
	C284.932556,261.451935 281.621277,259.673340 277.695343,260.618225 
	C272.993073,261.749969 272.132568,265.576172 271.950989,269.504456 
	C271.718597,274.533417 272.728760,279.450104 274.291565,284.236755 
	C283.004486,310.922913 294.857727,335.917603 313.602509,357.198914 
	C315.035370,358.825684 316.316895,360.569153 317.682800,362.701935 
z"/>
<path fill="#AFE1FF" opacity="1.000000" stroke="none" 
	d="
M44.478966,219.237274 
	C44.041214,202.501175 44.127857,185.847534 43.855301,169.199753 
	C43.783596,164.820190 46.081028,164.928680 49.150166,164.932678 
	C84.621811,164.978943 120.093544,164.962128 155.565247,164.962128 
	C159.562057,164.962128 163.572144,165.164246 167.551697,164.902298 
	C171.077087,164.670242 172.107635,165.961533 172.073944,169.438095 
	C171.917419,185.590363 172.009369,201.744995 172.004242,217.898773 
	C171.995193,246.375809 171.980209,274.852844 171.861816,303.805817 
	C169.485260,303.454895 169.856247,301.381653 169.651474,299.650146 
	C167.715271,283.277466 165.398788,266.960846 162.594498,250.713364 
	C161.770966,245.942032 160.792404,241.225342 158.797455,236.772400 
	C157.152649,233.101013 154.327377,231.307236 150.403061,232.084915 
	C146.439407,232.870377 144.683167,235.781448 144.432190,239.688919 
	C144.268967,242.230209 144.902557,244.634567 145.576965,247.052704 
	C151.680374,268.936798 160.528580,289.793121 169.389389,310.642609 
	C170.172424,312.485077 170.824951,314.363708 171.720184,316.570435 
	C171.949860,333.549286 171.905289,350.191772 172.065536,366.832306 
	C172.097061,370.104919 171.049744,371.103821 167.789413,371.096344 
	C127.845917,371.004883 87.902092,371.012604 47.958515,371.085144 
	C44.973915,371.090576 43.907478,370.202850 43.863739,367.114319 
	C43.788979,361.835754 44.727371,356.501923 42.981491,350.953613 
	C42.721340,350.382233 42.778179,350.128021 43.134697,349.624603 
	C52.718105,347.356201 61.974232,345.178375 70.641045,341.183380 
	C89.308083,332.578766 103.537926,319.368774 112.245560,300.530396 
	C112.993423,298.912445 113.550056,296.787292 115.863396,296.976624 
	C117.854195,297.139587 119.007446,298.767639 119.810333,300.463806 
	C122.450714,306.041992 122.837311,312.134125 122.746658,318.067596 
	C122.591629,328.212738 121.173607,338.292633 119.488869,348.677216 
	C127.343002,335.747559 133.452438,322.634583 135.356583,307.646698 
	C137.061493,294.226990 132.684082,284.537506 122.102600,275.936432 
	C111.565872,267.371704 99.570053,267.444733 87.491447,266.370758 
	C83.620560,266.026581 80.698143,267.928131 79.165634,271.537689 
	C77.575157,275.283783 78.318916,278.689636 81.086510,281.685211 
	C83.486435,284.282867 86.137367,286.552338 89.420784,287.934021 
	C92.819389,289.364227 93.702599,291.987732 92.895180,295.267059 
	C89.758080,308.008240 84.045509,319.248413 73.902481,327.967194 
	C67.704376,333.295044 61.414062,338.489685 54.486259,342.838806 
	C51.412857,344.768280 48.403816,346.980743 44.248665,347.015198 
	C43.936825,308.087158 43.937946,269.377716 43.943909,230.180374 
	C44.312443,227.515259 46.241138,226.980362 47.803585,226.165771 
	C63.243069,218.116394 79.404503,215.226517 96.539711,219.480423 
	C97.991028,219.840729 99.441223,220.222260 100.929199,220.400833 
	C106.330055,221.048950 110.540901,218.507294 111.310059,214.151886 
	C112.027733,210.087967 109.177933,206.265015 103.919914,205.050140 
	C96.602196,203.359390 89.132538,202.554581 81.660599,203.802917 
	C70.040764,205.744232 59.144512,209.586899 49.695976,216.906265 
	C48.258202,218.020050 46.817604,219.197113 44.478966,219.237274 
z"/>
<path fill="#0329D6" opacity="1.000000" stroke="none" 
	d="
M43.635155,346.965668 
	C66.218834,335.560364 85.298370,321.368469 91.749207,295.378174 
	C92.565132,292.090790 92.491814,289.991180 88.546318,288.809357 
	C84.710373,287.660431 81.519386,285.050568 79.151711,281.678223 
	C76.674377,278.149689 75.953041,274.372803 78.107262,270.455414 
	C80.299416,266.469055 83.660736,264.492859 88.349052,264.707672 
	C94.523598,264.990631 100.494270,266.937897 106.566208,267.291443 
	C118.316879,267.975555 124.753242,276.490295 131.838516,283.701935 
	C137.435913,289.399200 137.308212,297.394623 136.823639,304.972931 
	C135.697067,322.590546 127.816727,337.631317 118.183701,353.353668 
	C118.734070,333.797577 126.611084,315.002838 115.835716,295.696228 
	C101.499802,328.492554 76.836632,344.988434 43.324066,350.018555 
	C42.819466,350.138245 42.748615,350.292725 42.444183,350.345032 
	C41.418541,350.457733 40.626476,350.672668 39.418591,350.835266 
	C38.653942,350.487854 38.519184,350.110199 38.786301,349.421936 
	C40.446590,348.500183 41.890598,347.817474 43.635155,346.965668 
z"/>
<path fill="#C6D1D8" opacity="1.000000" stroke="none" 
	d="
M270.837341,164.537201 
	C274.287323,169.802963 273.926605,171.012802 268.150574,173.100784 
	C243.779800,181.910461 219.393967,190.678482 194.666412,199.586838 
	C197.217239,203.217819 200.807068,205.226547 204.376999,207.120102 
	C224.019379,217.538773 244.531754,219.889709 265.929260,213.469299 
	C267.351959,213.042404 268.774628,212.614075 270.188171,212.158066 
	C273.890045,210.963821 277.135773,211.087234 278.820984,215.306488 
	C280.463959,219.420197 278.717682,223.936569 274.626251,225.699432 
	C266.704437,229.112701 258.297424,230.327042 249.790054,229.769363 
	C233.644226,228.711029 218.576080,223.958420 204.885513,215.206161 
	C199.791718,211.949722 195.445572,207.858948 192.178482,202.709625 
	C191.679962,201.923889 191.449615,200.711288 189.880219,201.754333 
	C188.115555,202.359222 186.536087,202.794464 184.931107,202.932159 
	C183.002365,203.097641 180.794846,203.434509 180.166367,200.767914 
	C179.613312,198.421204 181.071396,197.062485 182.922119,196.126129 
	C184.950226,195.100052 187.060852,194.237045 189.451050,193.167862 
	C194.561386,189.943436 200.088486,188.626541 205.352402,186.712479 
	C225.591843,179.353058 245.889954,172.155243 266.470093,164.615997 
	C267.512909,164.131546 268.234009,163.893509 269.376160,163.857971 
	C270.077362,164.042618 270.402466,164.168579 270.837341,164.537201 
z"/>
<path fill="#CAD5DD" opacity="1.000000" stroke="none" 
	d="
M318.095947,362.936523 
	C309.339966,354.858826 301.962219,345.716461 296.019440,335.593018 
	C285.611755,317.863617 277.009277,299.284210 271.723480,279.308533 
	C270.605530,275.083649 270.407471,270.835175 270.947754,266.489777 
	C271.385620,262.967896 273.083344,260.657227 276.457397,259.606171 
	C279.851044,258.548981 283.026611,258.732819 285.678101,261.429291 
	C289.945282,265.768860 292.086243,271.265442 292.579712,277.066223 
	C295.077240,306.423065 306.652710,333.011169 317.702362,359.955109 
	C319.215790,360.827972 319.122192,361.779205 318.095947,362.936523 
z"/>
<path fill="#042AD6" opacity="1.000000" stroke="none" 
	d="
M43.929688,219.445618 
	C53.438637,212.163727 63.379768,206.522476 74.918808,203.737000 
	C85.036301,201.294662 94.962563,201.678650 104.921150,204.016693 
	C110.644897,205.360504 114.021072,210.096878 112.900024,214.740784 
	C111.695671,219.729797 106.573792,222.755814 100.793465,221.760925 
	C95.745949,220.892181 90.758133,219.579010 85.682701,218.988541 
	C70.688370,217.244125 57.364498,222.643021 44.149811,229.419876 
	C37.014046,232.085922 31.677746,237.185150 24.569305,241.429825 
	C28.630169,231.154037 36.334484,225.564224 43.929688,219.445618 
z"/>
<path fill="#010101" opacity="1.000000" stroke="none" 
	d="
M268.128998,164.714005 
	C252.552292,171.768875 236.055908,176.897522 219.885132,182.910782 
	C210.164719,186.525406 200.333572,189.842255 190.159393,193.162827 
	C189.789200,185.073914 189.990829,177.109695 189.750366,169.158844 
	C189.647568,165.759979 190.436752,164.686356 194.028625,164.738419 
	C209.115311,164.957016 224.206985,164.829742 239.853958,164.829773 
	C242.535721,163.497589 244.742340,163.644135 247.276917,164.648102 
	C250.416779,164.823990 253.266113,164.817902 256.629578,164.725235 
	C257.438019,164.575287 257.732330,164.511932 258.446106,164.277008 
	C261.873444,163.300537 264.858856,163.190628 268.128998,164.714005 
z"/>
<path fill="#042AD6" opacity="1.000000" stroke="none" 
	d="
M171.943130,316.452148 
	C169.838486,316.276337 169.515594,314.317841 168.831329,312.688446 
	C159.971405,291.590759 150.871552,270.582672 144.603073,248.505890 
	C143.924225,246.115112 143.044571,243.790695 142.996735,241.242905 
	C142.887665,235.434937 145.480698,231.440781 149.994339,230.645416 
	C155.562225,229.664261 158.843658,231.996902 160.994675,238.260040 
	C163.654739,246.005402 164.540039,254.123154 165.788055,262.124573 
	C167.936371,275.897827 169.485138,289.764587 171.520706,303.936951 
	C171.825104,308.186798 171.894333,312.091797 171.943130,316.452148 
z"/>
<path fill="#FBBD5A" opacity="1.000000" stroke="none" 
	d="
M464.354187,276.082184 
	C454.652863,278.671631 445.285645,281.087982 435.345886,280.436707 
	C441.628479,277.251282 447.787720,273.996735 453.729584,270.354645 
	C456.414398,268.708984 459.027863,266.946808 461.713135,265.301941 
	C464.532471,263.574982 464.348846,261.927368 461.850586,260.016144 
	C457.372253,256.590118 452.791351,253.263519 448.601654,249.506851 
	C445.735352,246.936829 441.787689,243.680237 444.928650,239.475616 
	C448.063110,235.279648 452.462769,237.633148 456.149292,239.621750 
	C458.616547,240.952667 460.887848,242.646774 463.590759,244.280319 
	C466.957733,247.422943 470.103027,250.352783 472.979706,253.526108 
	C480.108704,261.390167 478.891937,268.356903 469.578369,273.584869 
	C468.001770,274.469879 466.327026,275.179993 464.354187,276.082184 
z"/>
<path fill="#ED272E" opacity="1.000000" stroke="none" 
	d="
M268.670959,164.966339 
	C265.280365,164.954407 262.104431,164.875687 258.448364,164.438995 
	C262.957489,159.380249 261.273529,154.094238 259.100800,148.929245 
	C256.958191,143.835739 253.312119,139.677444 249.961411,135.355423 
	C243.597412,127.146675 243.573090,123.413811 249.750534,114.945923 
	C252.872833,110.665947 256.533752,106.755341 258.940125,101.981255 
	C262.219604,95.474915 262.893097,89.018356 258.036713,82.470711 
	C257.780182,81.859093 257.684265,81.572975 257.801025,80.887283 
	C266.406708,87.254570 268.090088,95.239723 262.886444,104.689102 
	C261.051270,108.021667 258.683929,111.056519 256.706482,114.316429 
	C253.174850,120.138367 253.327637,126.003838 257.085175,131.641769 
	C259.937378,135.921280 263.128845,139.974396 265.989258,144.248764 
	C269.823792,149.978836 271.848206,156.148407 269.746277,163.507812 
	C269.463409,164.244293 269.174561,164.571915 268.670959,164.966339 
z"/>
<path fill="#ED2B33" opacity="1.000000" stroke="none" 
	d="
M247.888306,164.543640 
	C245.360687,164.886490 243.153946,164.942917 240.679138,164.914886 
	C239.691849,164.162766 238.972641,163.495071 237.829727,162.434052 
	C241.075317,161.786575 243.956909,161.401230 246.062241,159.143784 
	C250.881042,153.976807 249.423645,145.446838 242.939133,142.291641 
	C239.976791,140.850250 236.701172,140.067657 233.663864,138.762360 
	C227.145294,135.960983 225.152161,131.702972 227.048035,124.444038 
	C227.384918,123.949745 227.607849,123.826988 228.124222,123.948395 
	C229.080521,127.711426 231.229034,130.005371 234.257950,131.779984 
	C239.391006,134.787415 244.744720,137.506943 248.923233,141.906693 
	C256.057983,149.419220 255.801575,157.398560 247.888306,164.543640 
z"/>
<path fill="#EF2D34" opacity="1.000000" stroke="none" 
	d="
M274.324585,151.201599 
	C272.738190,146.881836 269.867035,143.836380 267.147461,140.684128 
	C259.380371,131.681351 258.938660,125.248672 265.358459,114.927589 
	C271.546173,104.979637 271.546173,104.979645 272.260345,97.642303 
	C273.812317,100.843636 274.091400,104.029671 272.691406,108.762077 
	C271.420502,113.058151 270.074890,117.375984 268.247894,121.453796 
	C265.212463,128.228821 265.847076,134.320938 270.425232,140.135529 
	C272.803253,143.155746 274.714294,146.474045 275.803955,150.577393 
	C275.514587,151.320892 275.097595,151.473831 274.324585,151.201599 
z"/>
<path fill="#EF2D34" opacity="1.000000" stroke="none" 
	d="
M214.670563,134.814590 
	C216.776382,140.923508 221.344131,143.144379 226.969208,143.848785 
	C230.261002,144.261017 233.566116,144.581360 236.872055,144.862640 
	C240.929153,145.207825 243.805786,147.121216 244.926453,151.101715 
	C245.609665,153.528458 244.934647,155.732422 242.752380,157.238098 
	C239.229355,159.668854 235.894928,158.933563 232.517151,156.542618 
	C233.077133,156.250076 233.487015,155.992996 233.928253,155.812653 
	C236.218231,154.876740 238.185623,153.565002 237.809555,150.748596 
	C237.432022,147.921265 235.184570,147.133148 232.719543,146.927933 
	C229.417297,146.652985 226.107254,146.471970 222.800598,146.249771 
	C215.517090,145.760345 213.170853,143.249161 213.254730,135.526077 
	C213.610977,134.738983 213.961945,134.545395 214.670563,134.814590 
z"/>
<path fill="#ED2E36" opacity="1.000000" stroke="none" 
	d="
M283.496033,164.333923 
	C281.468201,164.721725 279.620026,164.762817 277.367188,164.713959 
	C281.266327,160.321823 281.470978,155.215485 279.463501,149.938232 
	C278.176056,146.553864 276.273712,143.407471 274.729584,140.115692 
	C272.760071,135.917145 272.694794,131.914612 276.903809,127.358292 
	C275.880341,133.538605 278.410522,137.673721 281.000214,141.741974 
	C285.462769,148.752304 286.655579,156.106232 283.496033,164.333923 
z"/>
<path fill="#F03239" opacity="1.000000" stroke="none" 
	d="
M243.543900,89.823067 
	C249.658844,98.312195 249.353073,105.837830 243.013824,113.631599 
	C237.962509,119.841919 237.544159,123.348969 241.086456,129.788254 
	C236.989731,127.998138 235.342407,124.762604 236.108643,119.649055 
	C236.733032,115.482124 238.689133,111.829926 240.760239,108.221008 
	C243.944550,102.672340 245.457428,96.899902 242.443237,90.307045 
	C242.519669,89.830902 242.817108,89.729988 243.543900,89.823067 
z"/>
<path fill="#F66C72" opacity="1.000000" stroke="none" 
	d="
M274.012421,151.391571 
	C274.446411,150.981445 274.844604,150.986038 275.540833,150.962555 
	C276.331177,153.151733 276.626343,155.335205 274.597931,157.694244 
	C274.355377,155.395416 274.166016,153.600845 274.012421,151.391571 
z"/>
<path fill="#F66C72" opacity="1.000000" stroke="none" 
	d="
M228.561035,123.876678 
	C228.417664,124.192574 227.995178,124.202568 227.995178,124.202568 
	C227.995178,124.202568 227.582794,124.110229 227.372406,124.091370 
	C227.045441,122.865044 227.291046,121.206871 228.340744,121.202858 
	C229.507065,121.198410 228.590744,122.720917 228.561035,123.876678 
z"/>
<path fill="#F66C72" opacity="1.000000" stroke="none" 
	d="
M214.961304,134.744766 
	C214.565506,135.068573 214.223190,135.095184 213.622116,135.128174 
	C213.235062,134.128754 213.452423,133.287613 214.463806,132.824783 
	C214.647476,133.365707 214.831131,133.906631 214.961304,134.744766 
z"/>
<path fill="#042AD6" opacity="1.000000" stroke="none" 
	d="
M38.678040,349.185242 
	C39.002720,349.538483 39.002842,349.894012 39.002865,350.516235 
	C38.250969,350.856659 37.499172,350.930389 36.389114,351.013489 
	C36.100765,349.519745 37.749016,350.014099 38.678040,349.185242 
z"/>
<path fill="#F66C72" opacity="1.000000" stroke="none" 
	d="
M257.908569,80.246262 
	C258.006836,80.765282 257.999939,81.042854 257.934601,81.732826 
	C257.275940,81.658684 256.675781,81.172142 255.958496,80.416756 
	C255.857849,79.954193 255.874344,79.760483 256.151428,79.435867 
	C256.875824,79.538246 257.339600,79.771530 257.908569,80.246262 
z"/>
<path fill="#F66C72" opacity="1.000000" stroke="none" 
	d="
M243.884369,89.695389 
	C243.681107,90.013847 243.388992,90.010628 242.659546,89.969604 
	C242.206085,89.502449 242.031128,88.788361 242.201431,88.693375 
	C242.910629,88.297867 243.334198,88.954277 243.884369,89.695389 
z"/>
<path fill="#F66C72" opacity="1.000000" stroke="none" 
	d="
M256.009094,79.954132 
	C255.647217,79.838898 255.453064,79.529892 255.258911,79.220886 
	C255.502029,79.148720 255.745163,79.076569 256.200165,79.154694 
	C256.333649,79.456764 256.255249,79.608559 256.009094,79.954132 
z"/>
<path fill="#042AD6" opacity="1.000000" stroke="none" 
	d="
M36.001835,351.081543 
	C35.993229,351.104187 35.820423,351.071259 35.820423,351.071259 
	C35.820423,351.071259 36.071758,351.170776 36.051304,351.096802 
	C36.030849,351.022827 36.010441,351.058929 36.001835,351.081543 
z"/>
<path fill="#042AD6" opacity="1.000000" stroke="none" 
	d="
M42.293770,350.376160 
	C42.210606,350.242828 42.652924,350.035919 42.771618,350.009827 
	C42.890312,349.983734 42.729237,350.293854 42.696869,350.465149 
	C42.664501,350.636475 42.376934,350.509521 42.293770,350.376160 
z"/>
<path fill="#F66C72" opacity="1.000000" stroke="none" 
	d="
M240.952469,86.908356 
	C241.061615,86.933563 240.743713,86.851517 240.743713,86.851517 
	C240.743713,86.851517 240.843323,86.883156 240.952469,86.908356 
z"/>
<path fill="#F66C72" opacity="1.000000" stroke="none" 
	d="
M241.010132,86.980209 
	C241.217468,87.199615 241.443771,87.405945 241.670074,87.612274 
	C241.329865,87.980438 241.111465,87.917152 241.038239,87.177994 
	C241.061615,86.933563 241.029083,86.967125 241.010132,86.980209 
z"/>
<path fill="#ED2B33" opacity="1.000000" stroke="none" 
	d="
M257.773315,164.079269 
	C257.968170,164.081009 258.002258,164.365814 258.006958,164.509064 
	C258.011688,164.652328 257.573792,164.810822 257.358734,164.724731 
	C257.123383,164.323608 257.268311,164.136566 257.773315,164.079269 
z"/>
<path fill="#FBBD59" opacity="1.000000" stroke="none" 
	d="
M372.853149,319.856537 
	C380.671783,307.852753 388.273132,296.136322 396.961700,285.182281 
	C400.418762,280.823730 404.448059,277.096283 409.927612,275.470642 
	C412.834259,274.608337 415.981323,274.211517 418.399261,276.566650 
	C420.864105,278.967407 421.163818,281.929657 420.131409,285.300201 
	C418.187958,291.644897 414.684845,297.061340 410.504730,302.027374 
	C394.277344,321.305695 375.612396,338.139954 357.069763,355.100616 
	C353.313507,358.536438 350.023865,362.482422 345.856262,365.672699 
	C353.234222,349.497955 363.560364,335.192413 372.853149,319.856537 
z"/>
<path fill="#FCBD59" opacity="1.000000" stroke="none" 
	d="
M377.633087,300.679016 
	C375.626129,302.180511 374.003815,303.679688 372.109131,304.643494 
	C369.077423,306.185577 365.876648,306.039795 363.345886,303.644318 
	C360.954620,301.380890 361.622894,298.419281 362.661865,295.743134 
	C365.722015,287.860962 371.368652,281.671295 376.480865,275.153717 
	C379.148132,271.753235 382.113464,268.591705 385.563873,265.942352 
	C387.948608,264.111298 390.474579,262.513794 393.515503,262.035583 
	C400.111115,260.998352 403.406281,264.795441 401.317261,271.078979 
	C398.776184,278.722351 393.230560,284.344604 388.085052,290.177765 
	C384.902283,293.785889 381.306091,297.029297 377.633087,300.679016 
z"/>
<path fill="#F9BD59" opacity="1.000000" stroke="none" 
	d="
M410.088623,225.054214 
	C404.834503,228.544586 399.895294,227.224213 395.240234,224.771927 
	C388.035339,220.976349 383.126617,214.938065 380.359070,207.363647 
	C377.191528,198.694458 378.468964,190.739914 385.091827,183.908173 
	C392.424622,176.344040 403.407410,171.392441 413.873444,171.311554 
	C409.760834,175.471252 404.872437,177.947662 400.640045,181.260452 
	C397.095245,184.035049 393.610046,186.850754 391.393250,190.897858 
	C387.937988,197.205917 389.232422,203.402725 395.155426,207.451218 
	C398.155853,209.502060 401.515625,211.018677 404.622253,212.924606 
	C409.889923,216.156387 411.466156,219.533600 410.088623,225.054214 
z"/>
<path fill="#FCBD59" opacity="1.000000" stroke="none" 
	d="
M435.661102,194.299622 
	C443.061066,193.735901 448.974762,195.877228 452.507446,202.194138 
	C455.510529,207.563995 455.020294,213.058441 451.315430,218.071930 
	C447.243652,223.581924 440.607391,225.631470 434.034515,223.531387 
	C427.621887,221.482513 423.029541,215.395874 423.089172,209.024460 
	C423.151764,202.337494 427.571411,197.033981 435.661102,194.299622 
z"/>
<path fill="#EABD5A" opacity="1.000000" stroke="none" 
	d="
M414.897980,173.202118 
	C418.468628,167.173248 422.788483,165.229126 428.238464,166.882126 
	C432.773682,168.257706 435.903900,172.738495 435.660370,177.506271 
	C435.407196,182.462189 431.892578,186.468323 426.816193,187.587158 
	C418.978363,189.314621 412.827576,182.151428 414.897980,173.202118 
z"/>
<path fill="#C8D5DE" opacity="1.000000" stroke="none" 
	d="
M245.733429,314.747620 
	C237.510757,330.831238 232.196808,347.724091 225.472153,364.887573 
	C222.957123,361.376190 224.846436,358.635437 225.137543,356.146606 
	C227.956299,332.047394 232.658417,308.372986 241.908157,285.789276 
	C243.884308,280.964386 246.349060,276.526215 250.304565,273.021240 
	C252.071121,271.455902 254.025467,270.211609 256.233093,269.422516 
	C262.751526,267.092499 266.144470,269.582825 266.001984,276.570068 
	C265.877808,282.658020 262.952576,287.682465 259.722046,292.534576 
	C254.939377,299.718018 249.550003,306.514221 245.733429,314.747620 
z"/>
<path fill="#C9D6DF" opacity="1.000000" stroke="none" 
	d="
M239.344757,212.992615 
	C232.038406,209.521698 228.108658,203.150330 229.285248,197.245239 
	C230.719910,190.045044 236.317734,185.058472 243.412048,184.661072 
	C250.902145,184.241501 257.101105,188.499146 259.371002,195.533127 
	C261.108368,200.916992 259.270905,205.437607 255.663223,209.193878 
	C251.290649,213.746567 245.881271,215.208664 239.344757,212.992615 
z"/>
<path fill="#0229D6" opacity="1.000000" stroke="none" 
	d="
M147.592255,219.838409 
	C129.592026,220.108658 122.561501,203.142807 129.742981,191.904724 
	C133.933212,185.347565 142.286514,181.658279 149.460709,183.457016 
	C158.288269,185.670288 164.145615,192.386276 164.697357,200.927200 
	C165.143753,207.837524 159.158905,216.137329 151.823685,218.726212 
	C150.578156,219.165787 149.280136,219.456650 147.592255,219.838409 
z"/>
<path fill="#07BF63" opacity="1.000000" stroke="none" 
	d="
M426.620514,170.905457 
	C431.147186,173.677826 432.385406,177.076981 430.299103,180.381332 
	C428.277954,183.582504 425.182556,184.090240 422.038940,182.668900 
	C418.637543,181.130997 417.923889,178.005142 419.051178,174.672058 
	C420.181793,171.329132 422.903809,170.388031 426.620514,170.905457 
z"/>
</svg>